<svg width="43" height="50" viewBox="0 0 43 50" fill="none" xmlns="http://www.w3.org/2000/svg">
<rect x="13.5" y="4.875" width="21" height="20" fill="#0084FF"/>
<path d="M23.9178 0C16.0124 0 8.91254 4.98498 6.19346 12.4373L5.89134 13.2429L0.0503533 30.8666C-0.0503534 31.1687 7.50323e-08 31.5212 0.201413 31.773C0.402827 32.0247 0.704947 32.1758 1.00707 32.1758H4.4311C4.4311 32.9814 4.4311 34.1396 4.68286 35.3984H10.3728C10.3728 35.3984 9.7182 38.0671 6.24382 39.6281C6.49558 40.0309 6.7977 40.4337 7.09982 40.7862C8.76148 42.6493 11.0777 43.7067 13.9982 43.9081V48.6413C13.9982 49.1952 14.4514 49.6484 15.0053 49.6484H34.4417C34.9956 49.6484 35.4488 49.1952 35.4488 48.6413V33.6864C40.0813 30.061 42.75 24.6731 42.75 18.8322C42.75 8.45936 34.2906 0 23.9178 0ZM32.9311 9.7182L30.4134 12.2359C30.4134 12.2359 30.2624 12.3869 29.9602 12.6387C29.9602 12.6387 27.3922 14.6025 25.9823 14.1996C25.7809 14.3507 25.5795 14.5018 25.3781 14.7032C25.2774 14.8039 25.1767 14.9549 24.9753 15.1564L31.2191 21.1988C31.7226 21.7023 31.7226 22.508 31.2694 23.0115C31.0177 23.2633 30.7155 23.4143 30.3631 23.4143C30.0106 23.4143 29.7085 23.2633 29.4567 23.0618L23.6157 16.667C21.4002 19.1343 18.0265 22.9108 18.0265 22.9108C18.0265 22.9108 17.4223 23.8171 16.4152 23.0618L16.1634 22.8101C15.3074 21.9541 16.2641 21.0981 16.2641 21.0981C16.3145 21.0477 16.3145 21.0477 16.3145 21.0477C16.3145 21.0477 19.5875 18.1776 22.1051 15.962C18.8322 14.6025 17.2208 12.3366 16.4152 10.5742C15.4585 8.35866 15.5088 6.49558 15.5088 6.39488C15.5088 6.29417 15.5592 6.19346 15.6599 6.19346C15.7606 6.14311 15.8613 6.19346 15.9117 6.24382L24.1193 14.1996C24.3207 14.0486 24.4717 13.8975 24.6228 13.7968C24.8242 13.6458 24.9753 13.4443 25.1263 13.2933C25.2774 10.4735 26.6369 9.21467 26.6369 9.21467C26.7376 9.06361 26.8887 8.86219 27.0901 8.71113C28.3993 7.35159 29.5574 6.24382 29.5574 6.24382C29.5574 6.24382 29.7588 5.99205 30.061 6.34452C30.061 6.34452 30.212 6.49558 30.1113 6.84806L27.3922 9.56714C27.3922 9.56714 27.1405 9.76855 27.3419 10.0203C27.3419 10.0203 27.5433 10.2721 27.7951 10.0203L30.5141 7.30124C30.5141 7.30124 30.7155 7.09982 31.0177 7.35159C31.3198 7.65371 31.068 7.85512 31.068 7.85512L28.3489 10.5742C28.3489 10.5742 28.0972 10.7756 28.2986 11.0274C28.5 11.2792 28.7518 11.0274 28.7518 11.0274L31.5212 8.25795C31.5212 8.25795 31.6723 8.00618 32.0247 8.3083C32.3269 8.61042 32.0751 8.81184 32.0751 8.81184L29.356 11.5309C29.356 11.5309 29.1546 11.7323 29.356 11.9337C29.5574 12.1352 29.8092 11.9337 29.8092 11.9337L32.4276 9.16431C32.4276 9.16431 32.629 8.9629 32.8807 9.21467C33.1325 9.46643 32.9311 9.7182 32.9311 9.7182Z" fill="url(#paint0_linear)"/>
<defs>
<linearGradient id="paint0_linear" x1="21.375" y1="0" x2="21.5" y2="75.875" gradientUnits="userSpaceOnUse">
<stop stop-color="#FACCB2"/>
<stop offset="1" stop-color="#F1A683"/>
</linearGradient>
</defs>
</svg>
