<svg width="50" height="53" viewBox="0 0 50 53" fill="none" xmlns="http://www.w3.org/2000/svg">
<path d="M45.5779 31.1093C45.5721 31.1141 45.5657 31.1188 45.5602 31.1233L38.1895 36.8009C38.3737 37.2517 38.5082 37.7225 38.5904 38.2042C38.6295 38.4343 38.5782 38.671 38.4478 38.8621C38.3175 39.0533 38.1187 39.1833 37.8954 39.2235L25.9348 41.3791C25.8241 41.399 25.7108 41.3963 25.6012 41.3711C25.4916 41.3459 25.3879 41.2987 25.296 41.2322C25.2041 41.1657 25.1258 41.0813 25.0656 40.9836C25.0054 40.886 24.9645 40.7771 24.9451 40.6631C24.9258 40.5492 24.9284 40.4324 24.9529 40.3195C24.9773 40.2066 25.0231 40.0998 25.0876 40.0051C25.1522 39.9104 25.2342 39.8298 25.329 39.7678C25.4238 39.7058 25.5295 39.6636 25.6401 39.6437L36.6805 37.6542C36.2997 36.6119 35.5779 35.739 34.6393 35.1862C33.7008 34.6334 32.6045 34.4351 31.5393 34.6257L24.2629 35.9367C22.8315 36.1925 21.3625 36.1135 19.9646 35.7056L19.1509 35.4665C17.1779 34.8828 15.0885 34.8593 13.1036 35.3984C11.1187 35.9374 9.31213 37.0191 7.875 38.529L9.73826 49.5L10.9068 48.5194C11.9974 47.5825 13.3985 47.1185 14.8147 47.2251L27.7972 48.1868H27.8378C30.2972 48.1872 32.6945 47.3914 34.6908 45.9117L49.5 30.9833C48.9201 30.5667 48.2253 30.3539 47.5187 30.3766C46.8121 30.3994 46.1314 30.6563 45.5779 31.1093Z" fill="url(#paint2_linear)"/>
<path d="M6.15648 35.8518L0 36.9287L2.70749 52.4068L8.86396 51.3299L6.15648 35.8518Z" fill="#222222"/>
<path d="M22.4945 28.5C22.4945 28.5 37.7272 21.7611 37.7272 7.86209C37.7283 6.01646 37.0797 4.22935 35.8951 2.81409C34.7104 1.39882 33.0654 0.445724 31.2484 0.121903C29.4314 -0.201919 27.5584 0.1242 25.9578 1.04308C24.3571 1.96197 23.1311 3.41497 22.4945 5.14734C21.8579 3.41497 20.6318 1.96198 19.0312 1.04309C17.4306 0.124213 15.5576 -0.201905 13.7406 0.121916C11.9236 0.445737 10.2786 1.39883 9.09392 2.81409C7.90928 4.22936 7.26064 6.01646 7.26172 7.86209C7.26172 21.7611 22.4945 28.5 22.4945 28.5ZM16.4497 12.0912H20.3356V8.20529H24.6534V12.0912H28.5392V16.4089H24.6534V20.2948H20.3356V16.4089H16.4497V12.0912Z" fill="url(#paint1_linear)"/>
<defs>
<linearGradient id="paint2_linear" x1="28.6875" y1="30.375" x2="28.7065" y2="59.6028" gradientUnits="userSpaceOnUse">
<stop stop-color="#FACCB2"/>
<stop offset="1" stop-color="#F1A683"/>
</linearGradient>
<linearGradient id="paint1_linear" x1="22.4945" y1="0" x2="22.4945" y2="28.5" gradientUnits="userSpaceOnUse">
<stop stop-color="#CB0A89"/>
<stop offset="1" stop-color="#C90943"/>
</linearGradient>
</defs>
</svg>
